<?xml version="1.0" encoding="UTF-8" standalone="no"?>
<svg width="269px" height="269px" viewBox="0 0 269 269" version="1.1" xmlns="http://www.w3.org/2000/svg" xmlns:xlink="http://www.w3.org/1999/xlink" xmlns:sketch="http://www.bohemiancoding.com/sketch/ns">
    <!-- Generator: Sketch 3.2.2 (9983) - http://www.bohemiancoding.com/sketch -->
    <title>gavel-cross-out</title>
    <desc>Created with Sketch.</desc>
    <defs>
        <filter x="-50%" y="-50%" width="200%" height="200%" filterUnits="objectBoundingBox" id="filter-1">
            <feOffset dx="0" dy="1" in="SourceAlpha" result="shadowOffsetOuter1"></feOffset>
            <feGaussianBlur stdDeviation="1" in="shadowOffsetOuter1" result="shadowBlurOuter1"></feGaussianBlur>
            <feColorMatrix values="0 0 0 0 0   0 0 0 0 0   0 0 0 0 0  0 0 0 0.35 0" in="shadowBlurOuter1" type="matrix" result="shadowMatrixOuter1"></feColorMatrix>
            <feMerge>
                <feMergeNode in="shadowMatrixOuter1"></feMergeNode>
                <feMergeNode in="SourceGraphic"></feMergeNode>
            </feMerge>
        </filter>
    </defs>
    <g id="Features" stroke="none" stroke-width="1" fill="none" fill-rule="evenodd" sketch:type="MSPage">
        <g id="Desktop" sketch:type="MSArtboardGroup" transform="translate(-872.000000, -349.000000)">
            <g id="gavel-cross-out" sketch:type="MSLayerGroup" transform="translate(868.000000, 347.000000)">
                <path d="M138.450904,267.766667 C211.516812,267.766667 270.748434,208.514041 270.748434,135.422222 C270.748434,62.3304038 211.516812,3.07777778 138.450904,3.07777778 C65.3849954,3.07777778 6.15337351,62.3304038 6.15337351,135.422222 C6.15337351,208.514041 65.3849954,267.766667 138.450904,267.766667 Z M102.409849,88.1764517 L144.885375,115.250424 C148.272993,116.812384 152.181784,115.771077 154.266472,112.647158 L156.351161,109.523238 C158.435849,106.138991 157.393505,101.713438 154.005886,99.370498 L112.833291,73.0775055 C109.445673,70.9948922 105.01571,72.0361988 102.670435,75.4204454 L100.585747,78.5443653 C98.7616448,81.9286118 99.5434029,86.0938384 102.409849,88.1764517 Z M217.328295,191.005482 L217.328295,190.484828 C217.328295,189.964175 217.328295,189.703848 217.067709,189.443522 C216.807123,187.881562 216.546537,186.579929 216.025365,185.538622 C215.243607,183.195682 213.940677,181.373395 212.37716,180.071762 C212.116574,179.811435 211.595402,179.551109 211.334816,179.030455 L210.031886,178.249475 C209.250128,177.728822 208.46837,177.208169 207.686612,176.427189 C206.904853,175.906536 206.123095,175.385882 205.341337,174.604902 C204.559579,174.084249 203.777821,173.563596 202.996063,173.042942 C201.432546,172.001636 199.608444,170.700002 198.044928,169.658696 L195.699653,168.096736 L193.093793,166.534776 C191.530277,165.493469 189.706174,164.452163 188.142658,163.410856 C186.579142,162.369549 184.75504,161.328243 183.191523,160.286936 L178.240388,157.163016 L173.028668,154.299423 L167.816947,151.43583 L162.605226,148.572236 L157.393505,145.708643 L152.181784,142.84505 C150.357682,141.803743 148.794165,141.022763 146.970063,139.981457 C145.145961,138.94015 143.582445,138.15917 141.758342,137.117863 L140.194826,139.72113 L132.116659,135.81623 L141.23717,121.758591 L98.5010588,94.4242915 L76.351245,129.308064 L118.82677,156.382036 L127.947282,142.324397 L134.722519,148.051583 L133.159003,150.65485 C134.722519,151.956483 136.286035,152.99779 137.849552,154.299423 C139.413068,155.601056 140.976584,156.642363 142.5401,157.943996 L147.230649,161.588569 L151.921198,164.972816 L156.872333,168.357062 L161.823468,171.741309 L166.774602,175.125556 L171.725737,178.509802 C173.289254,179.551109 175.113356,180.592415 176.676872,181.633722 C178.240388,182.675029 180.064491,183.716335 181.628007,184.757642 L184.233867,186.319602 L186.839728,187.881562 C188.403244,188.922868 190.227347,189.964175 192.051449,191.005482 C192.833207,191.526135 193.875551,192.046788 194.657309,192.567442 C195.439067,193.088095 196.481412,193.608748 197.26317,194.129402 C198.044928,194.650055 199.087272,195.170708 199.86903,195.431035 L201.17196,196.212015 C201.693132,196.472342 201.953719,196.732668 202.474891,196.992995 C204.298993,197.773975 206.383681,198.034301 208.989542,198.034301 C210.292472,198.034301 211.595402,197.773975 212.898332,197.253322 C213.158918,197.253322 213.680091,196.992995 213.940677,196.992995 L214.461849,196.732668 L214.983021,196.472342 C215.764779,196.212015 216.546537,195.691362 217.588881,195.170708 C217.328295,193.348422 217.328295,192.307115 217.328295,191.526135 L217.328295,191.005482 Z M63.0613567,151.43583 L104.494538,177.728822 C107.882156,179.811435 112.312119,178.770129 114.657394,175.385882 L116.742082,172.261962 C118.82677,169.138042 118.045012,164.972816 115.178566,162.629876 L72.4424543,135.555903 C69.0548357,133.993944 65.146045,135.03525 63.0613567,138.15917 L60.9766683,141.28309 C58.6313939,144.667337 59.6737381,149.09289 63.0613567,151.43583 Z" id="Gavel-cutout-icon" fill-opacity="0.815641984" fill="#FFFFFF" filter="url(#filter-1)" sketch:type="MSShapeGroup"></path>
                <g id="Cross-Out" transform="translate(37.153374, 39.077778)" fill-opacity="0.8" fill="#990808" sketch:type="MSShapeGroup">
                    <path d="M0.371107158,181.94298 L4.38894254,186.547945 L8.42115312,190.602923 L13.4062145,185.936078 L196.730652,12.8496924 L200.846631,8.92222214 L192.588635,0.464967932 L187.720399,5.06875202 L4.38894261,178.155138 L0.371107158,181.94298 Z" id="Line-2"></path>
                    <path d="M1.19979554,182.94298 L5.21763092,187.547945 L9.24984151,191.602923 L14.2349028,186.936078 L197.559341,13.8496924 L201.846631,9.70581075 L198.16731,5.6667054 L193.846753,1.32625606 L188.549088,6.06875202 L5.217631,179.155138 L1.19979554,182.94298 Z" id="Line-6" transform="translate(101.523213, 96.464589) scale(-1, 1) translate(-101.523213, -96.464589) "></path>
                </g>
            </g>
        </g>
    </g>
</svg>