<?xml version="1.0" encoding="UTF-8" standalone="no"?>
<svg width="1024px" height="768px" viewBox="0 0 1024 768" version="1.1" xmlns="http://www.w3.org/2000/svg" xmlns:xlink="http://www.w3.org/1999/xlink" xmlns:sketch="http://www.bohemiancoding.com/sketch/ns">
    <!-- Generator: Sketch 3.2.2 (9983) - http://www.bohemiancoding.com/sketch -->
    <title>projector-contents</title>
    <desc>Created with Sketch.</desc>
    <defs>
        <filter x="-50%" y="-50%" width="200%" height="200%" filterUnits="objectBoundingBox" id="filter-1">
            <feOffset dx="0" dy="5" in="SourceAlpha" result="shadowOffsetOuter1"></feOffset>
            <feGaussianBlur stdDeviation="0" in="shadowOffsetOuter1" result="shadowBlurOuter1"></feGaussianBlur>
            <feColorMatrix values="0 0 0 0 0.0459933245   0 0 0 0 0.353210117   0 0 0 0 0.711415816  0 0 0 0.7 0" in="shadowBlurOuter1" type="matrix" result="shadowMatrixOuter1"></feColorMatrix>
            <feMerge>
                <feMergeNode in="shadowMatrixOuter1"></feMergeNode>
                <feMergeNode in="SourceGraphic"></feMergeNode>
            </feMerge>
        </filter>
    </defs>
    <g id="Page-1" stroke="none" stroke-width="1" fill="none" fill-rule="evenodd" sketch:type="MSPage">
        <g id="projector-contents" sketch:type="MSArtboardGroup">
            <rect id="Background" fill="#FFFFFF" sketch:type="MSShapeGroup" x="0" y="0" width="1024" height="768"></rect>
            <g id="Sidebar" sketch:type="MSLayerGroup" transform="translate(640.000000, 0.000000)">
                <rect id="Background" stroke="#D8D8D8" stroke-width="2" fill="#F6F6F6" sketch:type="MSShapeGroup" x="-0.337829912" y="0" width="384.33783" height="768"></rect>
                <text id="Ben-Drucker" sketch:type="MSTextLayer" font-family="Tablet Gothic" font-size="42" font-weight="bold" fill="#333333">
                    <tspan x="31.6568915" y="235">Ben Drucker</tspan>
                </text>
                <text id="Jordan-Cohen" sketch:type="MSTextLayer" font-family="Tablet Gothic" font-size="42" font-weight="bold" fill="#333333">
                    <tspan x="31.6568915" y="341">Jordan Cohen</tspan>
                </text>
                <text id="Liz-Stewart" sketch:type="MSTextLayer" font-family="Tablet Gothic" font-size="42" font-weight="bold" fill="#333333">
                    <tspan x="29.6568915" y="447">Liz Stewart</tspan>
                </text>
                <text id="Brian-Edwards" sketch:type="MSTextLayer" font-family="Tablet Gothic" font-size="42" font-weight="bold" fill="#333333">
                    <tspan x="29.6568915" y="553">Brian	Edwards</tspan>
                </text>
                <text id="Jack-Garrett" sketch:type="MSTextLayer" font-family="Tablet Gothic" font-size="42" font-weight="bold" fill="#333333">
                    <tspan x="31.6568915" y="662.879714">Jack Garrett</tspan>
                </text>
                <path d="M0.281938326,177 L384,177" id="Line" stroke="#D8D8D8" stroke-width="2" stroke-linecap="square" sketch:type="MSShapeGroup"></path>
            </g>
            <g id="Main" sketch:type="MSLayerGroup" transform="translate(27.000000, 62.000000)">
                <g id="URL" transform="translate(5.000000, 483.801115)" font-family="Tablet Gothic" sketch:alignment="middle" sketch:type="MSTextLayer">
                    <text font-size="90" font-weight="bold" fill="#333333">
                        <tspan x="11.025" y="151.276952">SSGALA.ORG</tspan>
                    </text>
                    <text id="URL-Lead" font-size="52.4444444" font-weight="normal" fill="#6A6A6A">
                        <tspan x="153.270222" y="40">JOIN THEM</tspan>
                    </text>
                </g>
                <g id="Head" transform="translate(33.500000, 0.000000)" font-family="Tablet Gothic" sketch:alignment="middle" sketch:type="MSTextLayer">
                    <text id="Subheader" font-size="52.4444444" font-weight="normal" fill="#6A6A6A">
                        <tspan x="100.067111" y="160.250929">HAVE RAISED</tspan>
                    </text>
                    <text id="Header" font-size="90" font-weight="bold" fill="#333333">
                        <tspan x="39.535" y="68">5 DONORS</tspan>
                    </text>
                </g>
                <g id="Raise-Pill" transform="translate(0.000000, 216.451673)">
                    <path d="M8.00557186,0 C3.58421661,0 0,3.58085601 0,8.00707882 L0,197.052401 C0,201.474588 3.58829518,205.05948 7.99746401,205.05948 L445.742188,205.05948 C489.826268,205.05948 577.996988,205.05948 577.996988,205.05948 C582.416929,205.05948 586,201.478624 586,197.052401 L586,8.00707882 C586,3.5848913 582.409804,0 577.994428,0 L8.00557186,0 Z" id="Background" fill="#4990E2" filter="url(#filter-1)" sketch:type="MSShapeGroup"></path>
                    <text id="Amount" sketch:type="MSTextLayer" font-family="Tablet Gothic" font-size="107.561983" font-weight="bold" letter-spacing="3" fill="#FFFFFF">
                        <tspan x="70" y="144.269536">$10,000</tspan>
                    </text>
                </g>
            </g>
            <g id="Logo" sketch:type="MSLayerGroup" transform="translate(672.000000, 58.000000)">
                <g id="Group">
                    <g>
                        <g id="Lion-+-Triangle-1" sketch:type="MSShapeGroup">
                            <g id="Lion">
                                <path d="M11.3288584,55.5074149 C11.2889812,55.4994405 7.33087676,54.7017742 7.66108803,50.4669201 C7.71169244,49.8168938 7.77512285,49.1739306 7.83668767,48.5521564 C8.14940893,45.3870091 8.41945459,42.6531621 6.87963466,40.8477614 L7.44537798,40.3868419 C9.18225195,42.4234998 8.88492189,45.4341719 8.57010182,48.6216475 C8.50900341,49.2397762 8.4458062,49.8788662 8.39566819,50.5218295 C8.11466213,54.1248844 11.3316568,54.7749107 11.4687784,54.8004287 L11.3288584,55.5074149" id="Fill-1" fill="#834708"></path>
                                <path d="M11.5774497,37.6040094 C11.5772165,37.6040094 10.4725478,41.1505602 10.9708963,43.3300735 C11.469478,45.5095868 10.9151615,48.4115794 10.140471,50.1463498 C8.95977911,52.7906559 10.1407042,57.5192383 15.1715288,57.4271911 C20.2023535,57.3337769 17.4020873,55.2009707 21.9581167,56.5456798 C26.5143792,57.8903889 29.6471887,56.0350913 29.1245874,53.4386316 C28.6026857,50.8419441 25.7676727,48.0907813 26.2769816,45.4631075 C26.7865237,42.8356616 11.5774497,37.6040094 11.5774497,37.6040094" id="Fill-4" fill="#D78A0D"></path>
                                <path d="M29.1238878,53.4773643 C29.1010342,53.3639002 29.0723506,53.2497526 29.041335,53.135605 C28.406098,54.9400944 25.6496735,55.9528413 21.9569507,54.8626289 C17.4009213,53.5181476 20.2009543,55.650726 15.1703628,55.7436845 C11.7565473,55.8070239 10.117151,53.6491554 9.78414128,51.4302258 C9.37767359,54.0852403 10.8601263,57.5445285 15.170596,57.4650125 C20.2014207,57.3722818 17.4011545,55.2394756 21.9571839,56.5839569 C26.5134464,57.928666 29.6460227,56.0738241 29.1238878,53.4773643" id="Fill-5" fill="#C3760D"></path>
                                <path d="M18.2220187,39.5278868 C18.2220187,39.5278868 15.1237228,42.4025386 16.2157986,46.5293967 C17.3071749,50.6562548 18.991812,53.7628473 19.8108106,53.5780694 C20.6293428,53.392608 26.2769816,45.1958517 18.2220187,39.5278868" id="Fill-6" fill="#FBC43C"></path>
                                <path d="M11.6338841,36.9425912 C11.6338841,36.9425912 10.5023974,42.217305 12.5282063,45.7873232 C14.5542483,49.3580249 15.0763832,52.9287267 14.8865584,53.9487644 C14.8865584,53.9487644 13.1228664,54.7831129 13.1268308,56.1745292 C13.1307952,57.565034 13.6526969,58.9101989 15.3611205,58.539276 C15.3611205,58.539276 16.0966334,58.9325271 16.9986512,58.4239892 C16.9986512,58.4239892 18.1376003,59.1649235 18.7546476,57.6349808 C19.3716949,56.1050381 18.1140471,54.9218672 18.1140471,54.9218672 C18.1140471,54.9218672 17.4137473,49.3115457 19.4785005,47.6770246 C19.4785005,47.6770246 21.7209522,50.1114904 21.5432538,55.3281052 C21.5432538,55.3281052 20.3681587,57.8671493 22.2193007,58.684182 C24.0702095,59.5012147 24.1058891,58.0758504 24.1058891,58.0758504 C24.1058891,58.0758504 24.2521056,58.9646525 24.9087969,58.9370839 C25.565255,58.9101989 27.2736786,59.0949767 27.4872898,58.7709889 C27.7009011,58.4465453 28.4128608,56.0125352 26.3716608,55.8029228 C26.3716608,55.8029228 24.3192672,53.9715484 25.2091586,50.3204193 C26.0992832,46.6688345 27.8272955,39.8334196 26.1487216,35.4167496 L11.6338841,36.9425912" id="Fill-7" fill="#F0A507"></path>
                                <path d="M16.4622911,58.5397317 C14.7536343,58.9101989 14.2319658,57.5654897 14.2280014,56.1749848 C14.2238038,54.7835686 15.987729,53.9489922 15.987729,53.9489922 C16.177787,52.9291823 15.6554189,49.3582528 13.6293769,45.7877789 C11.6033349,42.217305 12.7602403,37.1809114 12.7602403,37.1809114 L26.1487216,37.1752154 C26.1487216,37.1752154 26.1484884,37.1749875 26.1484884,37.1747597 L11.6551053,37.1809114 C11.6551053,37.1809114 10.498433,42.217305 12.5244751,45.7877789 C14.5502839,49.3582528 15.072652,52.9291823 14.882594,53.9489922 C14.882594,53.9489922 13.1186688,54.7835686 13.1228664,56.1749848 C13.1268308,57.5654897 13.6484993,58.9101989 15.3571561,58.5397317 C15.3571561,58.5397317 15.8876862,58.8208857 16.5989463,58.5953246 C16.5114963,58.5650219 16.4622911,58.5397317 16.4622911,58.5397317" id="Fill-8" fill="#E79609"></path>
                                <path d="M23.3202382,58.6846377 C21.4693294,57.8680607 22.643958,55.3287887 22.643958,55.3287887 C22.8218897,50.1119461 19.4785005,47.6770246 19.4785005,47.6770246 C19.7026058,48.0124044 19.7462142,48.0103539 19.9766158,48.3810489 C20.626078,49.4416421 21.6621858,51.7184429 21.538823,55.3287887 C21.538823,55.3287887 20.3641943,57.8680607 22.2151031,58.6846377 C22.9562129,59.0118153 23.4055894,58.9783229 23.6788998,58.8227085 C23.5674302,58.7862541 23.4484982,58.7415976 23.3202382,58.6846377" id="Fill-9" fill="#E79609"></path>
                                <path d="M26.2643888,39.1751911 C26.3604672,39.0122858 26.444186,38.8523424 26.522308,38.6933104 C26.4187672,38.2449221 26.2872424,37.8010907 26.1209708,37.3638665 L26.2256776,35.5748702 C25.6755587,36.3497526 25.1403645,38.3884611 24.316702,38.3884611 C24.6457472,37.8614681 24.0846679,36.9560337 24.0902647,36.3969154 L23.8164879,37.3650057 C23.4862766,38.1947974 22.9067745,39.0109188 22.3533908,39.6475025 C22.4695244,38.891303 22.6199384,38.2068729 22.5254924,37.4217378 L22.5091684,37.4217378 C22.4545996,38.59739 21.8562082,39.5215072 20.7806896,40.159458 C19.6520014,40.8682669 19.2487985,41.3016178 18.885706,42.5230657 C18.6842212,41.3016178 17.9988462,40.2774789 17.1924405,39.2927563 C17.4347353,39.8049397 17.5014305,39.8026613 17.3806329,40.3934493 C17.0982276,39.4084988 16.2421503,39.1717735 15.2571132,39.0956751 C14.8541436,38.8985939 14.4105971,38.6627799 14.0880814,38.3474499 C13.8464861,38.0849788 13.7284869,37.7017526 13.5587173,37.3693347 L13.2415652,37.3693347 C13.2350356,37.7967617 13.1879292,38.233758 12.9190495,38.5839474 C12.8936307,38.1310024 12.7917223,37.7311439 12.6331463,37.3695625 L11.6275877,37.3700182 C11.6275877,37.3700182 11.5382721,37.7605352 11.4524544,38.4000809 C12.2315758,39.1391925 12.8518879,39.9703512 12.9190495,41.1845083 C13.2819088,40.7115133 13.2415652,40.0810812 13.2415652,39.5299373 C13.6443017,39.8842278 13.7254553,40.5538483 14.0880814,40.9477829 C14.4105971,41.2631129 14.8541436,41.4991547 15.2571132,41.6964638 C16.1038626,42.169003 17.1924405,42.5235214 17.4750789,43.508244 C17.5958765,42.9176839 17.4347353,42.4055005 17.1924405,41.8933172 C17.9988462,42.8782676 18.6842212,43.9024065 18.885706,45.1231709 C19.2487985,43.9024065 19.6520014,43.4690556 20.7806896,42.7602467 C21.8562082,42.1218402 22.4545996,41.197723 22.5091684,40.0220708 L22.5254924,40.0220708 C22.6199384,40.8072059 22.4695244,41.4918638 22.3533908,42.2478355 C23.0387657,41.4599663 23.7644843,40.3964112 24.0063127,39.3722723 C24.0464231,40.1603694 24.0464231,40.8689505 23.603343,41.578215 C24.7322645,41.578215 25.7807319,40.0022487 26.2643888,39.1751911" id="Fill-11" fill="#DA8D0C"></path>
                                <path d="M37.62333,18.1761294 C36.5468786,17.1795592 36.2066397,16.0724867 35.6966312,14.7437263 C35.2915627,13.8043438 34.7936806,12.077092 33.8046792,11.4407361 L33.7820588,11.3931176 C34.1488825,11.4560013 34.4982161,11.6029579 34.846617,11.7540155 C35.1299551,10.9235403 34.7332818,9.48404988 34.4501769,8.65380249 C33.996836,7.26990495 32.976819,6.3286997 31.8430004,5.55358948 C30.3698757,4.55701921 29.2365234,4.00336906 27.4800606,3.89263903 C27.8769671,3.0621638 29.9170012,2.89606876 30.7667821,2.89606876 C29.350325,1.73340344 26.5733789,2.01022851 24.8166829,2.06559353 C22.8899841,2.12095854 21.0201861,3.0621638 19.8868338,4.61238423 C19.7734986,2.89606876 20.7937488,1.29048332 21.9835355,0.0724529828 C20.2268395,-0.0934142231 18.4134759,2.84070374 18.1868055,4.16923627 C17.6770302,3.50508392 17.5634617,1.62267341 18.1301379,0.958293225 C16.8543004,1.06674486 15.2018448,2.10500977 14.8669696,3.6028271 L14.7981755,3.60806741 C14.254353,2.50281766 12.8560855,1.87101854 11.6702633,1.84413347 C10.8486995,1.81656488 9.97023492,1.73340344 9.14867115,1.84413347 C8.78044827,1.89949848 8.4404426,2.09338996 8.07221972,2.12095854 C8.90077949,2.49097 9.72747367,2.82498281 10.4569234,3.34377351 C9.96930212,3.18496933 9.22422796,3.26813077 8.9222339,3.36655747 C8.0155521,3.61581395 7.33554076,4.52922278 6.68374662,5.11066936 C5.72063042,5.99650961 4.72883061,6.88212201 3.68059638,7.65723222 C2.97236783,8.18331378 2.15057086,8.54307246 1.24412226,8.43234243 C1.66877955,8.43234243 2.09390325,8.79210111 2.54724414,8.84769397 C3.07334345,8.89918571 3.59967597,8.89964139 4.12577528,8.83334007 L4.10362127,9.00080216 C2.98052983,10.4145467 2.08480844,11.6161726 1.8672328,13.581061 C1.69722996,15.3527415 1.75389757,17.8439393 -0.00256520055,19.0619697 C1.69722996,19.3390226 2.66057937,17.290517 2.94391743,15.9617567 C2.94391743,16.8475969 3.00058504,17.8439393 2.8305822,18.7300074 C2.60414495,19.8924449 1.58389474,21.9409505 0.56387772,22.7160607 C1.17649425,22.7160607 2.56729935,22.9828608 3.08663586,22.5103215 C2.51203093,25.0167846 3.07427625,27.5701827 4.07703647,29.8023269 C5.60729519,33.3456879 10.3102406,34.3420303 10.536911,38.4390415 C11.0469195,37.7746613 10.9902519,36.8890489 10.9902519,36.1137108 C11.5571613,36.611996 11.6702633,37.5532012 12.180505,38.1068514 C12.6336127,38.5497715 13.2569564,38.8819616 13.8236325,39.1587867 C15.0136524,39.8231668 16.5434447,40.321452 16.9403512,41.7053495 C17.110354,40.8748743 16.8836836,40.1553569 16.5434447,39.4356117 C17.6770302,40.8197371 18.6401464,42.2589997 18.9234844,43.975543 C19.4334929,42.2589997 20.0001691,41.6502123 21.5868622,40.6536421 C23.0982317,39.7573212 23.9391511,38.4579521 24.0158739,36.8058874 L24.0384943,36.8058874 C24.1714183,37.9090866 23.9599059,38.8712531 23.7966659,39.9338969 C24.7600153,38.8265966 25.7800323,37.3317412 26.120038,35.8922508 C26.1767056,36.9997789 26.1767056,37.9963492 25.553595,38.9926916 C27.140055,38.9926916 28.6136461,36.778091 29.2934242,35.6156535 C30.121984,34.2098834 30.4463653,32.9342096 30.6814309,31.5131743 L30.6818973,31.5124907 L30.7453277,31.3607496 C30.6858617,31.8986788 30.6193997,32.4397978 30.6534469,32.9027678 C31.4465603,32.1276576 31.6165631,31.2418173 31.9563356,30.3008399 C32.3532421,29.0828096 32.9199182,28.3076994 33.7703988,27.3664941 C34.7850522,26.2753704 35.4305499,24.3423795 35.026181,22.7971716 L35.0357423,22.7816785 C35.3920719,23.3697324 35.1626031,24.3480755 35.2999579,24.9304334 C36.4895114,23.7677681 36.7168814,21.6087604 36.7168814,20.0031749 C36.9433187,20.8890152 36.8864178,21.7748554 36.8864178,22.6604678 C38.1762473,21.8206512 36.9188327,19.0906775 36.6888974,17.8660398 C36.9542791,18.0947907 37.2651347,18.2262541 37.62333,18.1761294" id="Fill-12" fill="#834708"></path>
                                <path d="M28.5068405,35.8874661 C28.3564264,36.5249612 28.072622,37.172937 27.7193239,37.7933441 C28.0133892,37.4848493 28.2841344,37.1471911 28.5261961,36.8124948 C28.5327257,36.5115187 28.5231645,36.204391 28.5068405,35.8874661" id="Fill-13" fill="#6C3300"></path>
                                <path id="Fill-14" fill="#6C3300" d="M20.4509447,3.96190226 C20.4889564,4.03663364 20.5293,4.10680822 20.5738412,4.16467947 C20.595762,4.03572228 20.633074,3.89127199 20.6836784,3.73634109 C20.603924,3.80924975 20.5265016,3.88466464 20.4509447,3.96190226"></path>
                                <path d="M26.4250636,36.8011028 L26.4029096,36.8011028 C26.3653644,37.6122117 26.1424252,38.3376528 25.7473843,38.9726417 C25.9544659,38.950997 26.1592156,38.8949484 26.3600008,38.8085972 C26.4542136,38.1551534 26.5104148,37.5069498 26.4250636,36.8011028" id="Fill-15" fill="#6C3300"></path>
                                <path d="M22.2736363,4.60782744 C23.4072218,3.05737917 25.2767866,2.11640175 27.2037186,2.06103674 C27.4602386,2.05283451 27.7405451,2.0400755 28.032978,2.02777216 C26.9115189,1.94620559 25.7350247,2.03232895 24.8295089,2.06103674 C24.0881659,2.08222582 23.3554514,2.23601753 22.66961,2.50372902 C22.3832404,3.17129896 22.2255971,3.87919649 22.2736363,4.60782744" id="Fill-16" fill="#6C3300"></path>
                                <path d="M2.95651023,15.9571999 C2.95651023,16.8188891 3.00851384,17.784701 2.85483501,18.6520863 C4.12694128,17.344515 4.10105607,15.1706977 4.2542685,13.5762764 C4.47161095,11.6116158 5.36779874,10.4099899 6.49065698,8.99601753 L6.51281099,8.82878328 C5.98671167,8.89485676 5.46037916,8.89440108 4.93404665,8.84290934 C4.48070575,8.78754432 4.05581526,8.42778564 3.63092477,8.42778564 C4.53737336,8.53851567 5.35917034,8.17852915 6.06739889,7.65267543 C7.11586631,6.87756522 8.10743292,5.99172497 9.07078233,5.10611257 C9.72234327,4.52443815 10.4023546,3.61102932 11.3090364,3.36200067 C11.6112637,3.26357398 12.3561046,3.18041254 12.8439591,3.33898888 C12.1145094,2.82019818 11.287582,2.48641321 10.4590222,2.11640175 C10.8274783,2.08860533 11.1672508,1.89471385 11.5357069,1.83934884 C11.5489993,1.83752612 11.5627581,1.8368426 11.5762837,1.83501989 C10.7855023,1.80471722 9.94761452,1.73340344 9.16149715,1.83934884 C8.79304107,1.89471385 8.4532686,2.08860533 8.08481252,2.11640175 C8.9133723,2.48641321 9.74029967,2.82019818 10.4697494,3.33898888 C9.98189492,3.18041254 9.23682076,3.26357398 8.9348267,3.36200067 C8.02814491,3.61102932 7.34813356,4.52443815 6.69633942,5.10611257 C5.73322322,5.99172497 4.74165661,6.87756522 3.69318919,7.65267543 C2.98472743,8.17852915 2.16316366,8.53851567 1.25671507,8.42778564 C1.68160556,8.42778564 2.10649605,8.78754432 2.56007014,8.84290934 C3.08593626,8.89440108 3.61250197,8.89485676 4.13836808,8.82878328 L4.11621408,8.99601753 C2.99335584,10.4099899 2.09740125,11.6116158 1.8798256,13.5762764 C1.71005596,15.3479569 1.76649038,17.8393825 0.0100276021,19.0574129 C1.71005596,19.334238 2.67317217,17.2857324 2.95651023,15.9571999" id="Fill-17" fill="#6C3300"></path>
                                <path d="M3.07940665,22.6037358 C4.05534886,21.7620964 5.00027546,19.8389026 5.21738471,18.7249949 C5.38738755,17.8393825 5.33071993,16.8428123 5.33071993,15.9571999 C5.06883628,17.1852551 4.2248853,19.0239205 2.75665779,19.0774628 C2.42224892,20.2645069 1.50064232,22.0093023 0.576703723,22.711276 C1.18885385,22.711276 2.58012535,22.9780762 3.09922866,22.5057647 C3.09176626,22.5383458 3.08663586,22.5709269 3.07940665,22.6037358" id="Fill-18" fill="#6C3300"></path>
                                <path d="M18.9304804,39.4310549 C19.2704861,40.1505723 19.4971565,40.8703175 19.3273869,41.7007927 C18.9304804,40.3166673 17.4004549,39.81861 16.210435,39.1542299 C15.6439921,38.8771769 15.0206484,38.5449869 14.5673075,38.1020667 C14.057299,37.5486444 13.9439638,36.6072113 13.3772876,36.109154 C13.3772876,36.8842642 13.4339553,37.7701045 12.9239467,38.4342568 C12.6972763,34.3374735 7.9940977,33.3409033 6.46407217,29.7977701 C5.46107876,27.5656259 4.89883344,25.012 5.47343836,22.5057647 C4.98231906,22.952786 3.71161199,22.7381611 3.05748585,22.7137823 C2.55937054,25.1530327 3.11461986,27.6271426 4.08986247,29.7977701 C5.619888,33.3409033 10.3230666,34.3374735 10.549737,38.4342568 C11.0595124,37.7701045 11.0030779,36.8842642 11.0030779,36.109154 C11.5695209,36.6072113 11.6830893,37.5486444 12.1930978,38.1020667 C12.6464387,38.5449869 13.2695492,38.8771769 13.8362253,39.1542299 C15.0262452,39.81861 16.5562707,40.3166673 16.952944,41.7007927 C17.1227136,40.8703175 16.8962764,40.1505723 16.5562707,39.4310549 C17.689623,40.8149525 18.6529724,42.2544429 18.9363104,43.9707583 C19.2891421,42.7828028 19.6699578,42.1254857 20.3963759,41.5028001 C19.9857107,40.7828271 19.4785005,40.0999919 18.9304804,39.4310549" id="Fill-19" fill="#6C3300"></path>
                                <path d="M17.1852113,3.60351062 L17.2537721,3.59827031 C17.3423881,3.20160162 17.5252169,2.83842535 17.7672786,2.51534884 C17.7523538,1.89334681 17.8661554,1.27817998 18.1429639,0.953508595 C17.3151037,1.02391102 16.3307663,1.4873367 15.6484229,2.21209437 C16.3044147,2.51079205 16.879486,2.98241995 17.1852113,3.60351062" id="Fill-20" fill="#6C3300"></path>
                                <path d="M20.5171736,0.953508595 C20.1909267,1.33627907 20.0911171,2.12255342 20.1617767,2.84799461 C20.5279008,1.80904617 21.2254021,0.856904617 21.9961283,0.0678961914 C21.2946625,0.00159487698 20.5848016,0.429933266 19.9703194,1.05261881 C20.1566463,1.00317762 20.3406411,0.968546006 20.5171736,0.953508595" id="Fill-21" fill="#6C3300"></path>
                                <path d="M17.7563182,2.58802966 C17.4909365,3.23235996 17.3468189,3.91268891 17.3929925,4.61238423 C17.5830505,4.35219144 17.795729,4.11090934 18.024265,3.88648736 C17.8689538,3.54153825 17.7749742,3.06649275 17.7563182,2.58802966" id="Fill-22" fill="#6C3300"></path>
                                <path d="M20.3042619,2.45588271 C20.6944056,1.57118166 21.3116861,0.760072801 21.9835355,0.0724529828 C20.4530435,-0.0722251432 18.8796428,2.13667947 18.3502787,3.58642265 C18.9262828,3.0972511 19.5918358,2.71539198 20.3042619,2.45588271" id="Fill-23" fill="#6C3300"></path>
                                <path d="M15.6931973,4.16923627 C15.8270542,3.38478463 16.5145279,2.04030334 17.4167789,1.10502191 C16.6043099,1.3606579 15.7687542,1.92023188 15.2680736,2.68144388 C15.3032869,3.27770003 15.4539341,3.85777958 15.6931973,4.16923627" id="Fill-24" fill="#6C3300"></path>
                                <path d="M9.17665515,1.84413347 C10.3622442,1.87101854 11.7605117,2.50281766 12.3043342,3.60806741 L12.372895,3.6028271 C12.4943923,3.06079676 12.7896235,2.58005527 13.1755696,2.18042467 C12.6877151,1.97172363 12.1611494,1.85529761 11.6702633,1.84413347 C10.8512647,1.81656488 9.97583172,1.7343148 9.15636675,1.84322211 C9.16312955,1.84344995 9.16989235,1.84390563 9.17665515,1.84413347" id="Fill-25" fill="#6C3300"></path>
                                <path d="M23.9813603,38.7559663 C23.9272579,39.1428379 23.8584639,39.5310765 23.7966659,39.9338969 C24.408816,39.2305561 25.0428869,38.3704617 25.511619,37.4679892 C25.0571121,38.0013616 24.5356768,38.482331 23.9813603,38.7559663" id="Fill-26" fill="#6C3300"></path>
                                <path d="M37.62333,18.1761294 C36.5468786,17.1795592 36.2066397,16.0724867 35.6966312,14.7437263 C35.2915627,13.8043438 34.7936806,12.077092 33.8046792,11.4407361 L33.7820588,11.3931176 C34.1488825,11.4560013 34.4982161,11.6029579 34.846617,11.7540155 C35.1299551,10.9235403 34.7332818,9.48404988 34.4501769,8.65380249 C33.996836,7.26990495 32.976819,6.3286997 31.8430004,5.55358948 C30.3698757,4.55701921 29.2365234,4.00336906 27.4800606,3.89263903 C27.8767339,3.0621638 29.9170012,2.89606876 30.7667821,2.89606876 C29.5382843,1.8881065 27.2883702,1.96215436 25.566421,2.03574655 C26.6060269,2.11480688 27.5952615,2.33991237 28.2727076,2.89606876 C27.4229266,2.89606876 25.3826594,3.0621638 24.9862193,3.89263903 C26.7426821,4.00336906 27.8762675,4.55701921 29.3493922,5.55358948 C30.4825113,6.3286997 31.5025283,7.26990495 31.9563356,8.65380249 C32.2392073,9.48404988 32.6361137,10.9235403 32.3523093,11.7540155 C32.0043748,11.6029579 31.6550411,11.4560013 31.2882175,11.3931176 L31.3110711,11.4407361 C32.2998393,12.077092 32.7979546,13.8043438 33.2027899,14.7437263 C33.7125652,16.0724867 34.0530372,17.1795592 35.1294887,18.1761294 C34.7712934,18.2262541 34.4604377,18.0947907 34.1950561,17.8660398 C34.4252245,19.0906775 35.682406,21.8206512 34.3928097,22.6604678 C34.3928097,21.7748554 34.4492441,20.8890152 34.2225737,20.0031749 C34.2225737,21.6087604 33.99567,23.7677681 32.8063498,24.9304334 C32.6685285,24.3480755 32.8979974,23.3697324 32.5421341,22.7816785 L32.5325729,22.7971716 C32.9369418,24.3423795 32.2912109,26.2753704 31.2760911,27.3664941 C30.4263101,28.3076994 29.859634,29.0828096 29.4627275,30.3008399 C29.1224886,31.2418173 28.952719,32.1276576 28.1596056,32.9027678 C28.1255584,32.4397978 28.1924868,31.8986788 28.2514864,31.3607496 L28.1882892,31.5124907 L28.1875896,31.5131743 C27.9525239,32.9342096 27.6276763,34.2098834 26.7993497,35.6156535 C26.6274813,35.9095666 26.404542,36.2706923 26.1424252,36.6461719 C26.1424252,37.4616097 26.0321215,38.2273785 25.553595,38.9926916 C27.140055,38.9926916 28.6134129,36.778091 29.2934242,35.6156535 C30.1215176,34.2098834 30.4463653,32.9342096 30.6814309,31.5131743 L30.6823637,31.5124907 L30.7453277,31.3607496 C30.6863281,31.8986788 30.6193997,32.4397978 30.6534469,32.9027678 C31.4465603,32.1276576 31.6165631,31.2418173 31.9563356,30.3008399 C32.3532421,29.0828096 32.9199182,28.3076994 33.7703988,27.3664941 C34.7850522,26.2753704 35.4305499,24.3423795 35.026181,22.7971716 L35.0357423,22.7816785 C35.3920719,23.3697324 35.1626031,24.3480755 35.2999579,24.9304334 C36.4895114,23.7677681 36.7168814,21.6087604 36.7168814,20.0031749 C36.9433187,20.8890152 36.8864178,21.7748554 36.8864178,22.6604678 C38.1762473,21.8206512 36.9188327,19.0906775 36.6888974,17.8660398 C36.9542791,18.0947907 37.2651347,18.2262541 37.62333,18.1761294" id="Fill-27" fill="#6C3300"></path>
                                <path d="M23.3680442,38.9644395 C23.9913879,37.9678692 24.3327928,36.5867058 23.6264298,35.8922508 C23.286191,37.3317412 22.2661739,38.8265966 21.3030577,39.9338969 C21.4658314,38.8712531 21.6778102,37.9090866 21.5444198,36.8058874 L21.5222658,36.8058874 C21.4450766,38.4579521 20.6041572,39.7573212 19.0930209,40.6536421 C18.6438776,40.9357074 18.2784531,41.1867867 17.9710954,41.4408278 C18.4291003,42.2298362 18.7730704,43.0632733 18.9237176,43.975543 C19.4334929,42.2589997 20.0001691,41.6502123 21.5868622,40.6536421 C22.3610864,40.1943175 22.9583117,39.6285918 23.3680442,38.9644395 C23.2656693,38.982211 23.471585,38.9644395 23.3680442,38.9644395" id="Fill-28" fill="#6C3300"></path>
                                <path d="M10.3330942,8.52393394 C10.3330942,8.52393394 11.5998369,8.83493495 12.0205298,9.60662757 C12.0205298,9.60662757 17.2950485,5.19907112 23.345657,9.60662757 C23.345657,9.60662757 24.540574,7.59776609 26.0302559,7.96071453 L25.8373995,10.5681105 L21.7927778,11.9274014 L13.9936354,11.7695086 C13.9936354,11.7695086 10.532247,11.8009505 10.4674174,11.7061692 C10.4025878,11.6113879 10.3330942,8.52393394 10.3330942,8.52393394" id="Fill-29" fill="#6C3300"></path>
                                <path d="M26.6018293,14.0456259 C26.6018293,14.0456259 29.0352718,23.0254668 26.3849532,26.7237587 C26.3849532,26.7237587 28.0775192,32.0310536 22.8456761,32.459392 C22.8456761,32.459392 17.4018541,36.2880081 14.031647,32.0586222 L24.9862193,11.8959596 C24.9862193,11.8959596 28.436414,10.9212619 28.1236928,9.60662757 C28.1236928,9.60662757 30.8931766,13.1604692 26.6018293,14.0456259" id="Fill-30" fill="#6C3300"></path>
                                <path d="M10.0271357,14.2085312 C10.0271357,14.2085312 8.36511898,33.3270051 17.960135,33.548693 C27.5556175,33.770153 27.4045038,19.3021126 25.1380325,13.691791 C25.1380325,13.691791 29.4701899,13.396511 28.2484548,9.92719784 C27.0269529,6.45788473 23.9291235,8.3031574 23.5513394,9.92719784 C23.5513394,9.92719784 17.6961526,5.47384564 11.6518405,10.3457391 C11.6518405,10.3457391 11.1607212,8.00810516 9.04489712,8.37697742 C6.92930627,8.74607752 4.73839181,13.7656111 10.0271357,14.2085312" id="Fill-31" fill="#F0A507"></path>
                                <path d="M11.0459867,26.7237587 C11.0459867,26.7237587 10.3216674,24.098819 10.247743,22.7864631 C10.247743,22.7864631 11.0166035,24.9418254 12.0142334,25.0263539 C13.0118632,25.1106545 14.2641474,24.4150603 15.6015497,25.7855153 C15.6015497,25.7855153 17.7710098,24.3731378 20.3963759,25.5952693 C20.3963759,25.5952693 22.549512,23.6985049 24.9862193,25.5952693 C24.9862193,25.5952693 26.3453092,24.6973536 26.3779572,22.7864631 C26.3779572,22.7864631 26.1606148,26.9905588 25.1091157,28.6957101 L12.2229474,29.5630954 C12.2229474,29.5630954 11.486968,28.6966215 11.0459867,26.7237587" id="Fill-32" fill="#DA8C0C"></path>
                                <path d="M18.1683827,29.2575625 C16.87832,31.1559218 15.3874721,32.0615841 13.9924694,32.0249019 C15.0327748,32.9565379 16.3305331,33.5338834 17.9505738,33.5714769 C19.9654222,33.6179562 21.5490838,33.0148648 22.7752496,31.9838908 C21.3032909,32.1764152 19.5869386,31.3381935 18.1683827,29.2575625" id="Fill-33" fill="#FBC43C"></path>
                                <path d="M17.0819036,26.978939 C17.0819036,26.978939 12.4920603,24.2938497 10.2820234,26.978939 C8.07221972,29.6640283 14.2886334,35.3121712 18.2437063,29.415911 L17.0819036,26.978939" id="Fill-34" fill="#FFE453"></path>
                                <path d="M19.1653129,26.978939 C19.1653129,26.978939 23.7553895,24.2938497 25.9649599,26.978939 C28.17523,29.6640283 22.1775579,35.3438409 18.2222519,29.4478086 L19.1653129,26.978939" id="Fill-35" fill="#FFE453"></path>
                                <path d="M15.7923074,28.3209141 C15.7923074,28.3209141 13.5521877,26.3002049 17.033398,25.9969505 C20.5143752,25.6939238 21.3597253,26.771605 20.3942771,27.8155659 C19.4288289,28.8597546 18.1021538,30.6109296 15.7923074,28.3209141" id="Fill-36" fill="#030000"></path>
                                <path d="M18.1306043,33.1435942 C16.3291339,33.1435942 16.2085694,32.1151264 16.2043718,32.0711534 C16.1985418,32.0103202 16.2440159,31.9560944 16.3065135,31.9503984 C16.3643471,31.9447024 16.4238131,31.9886754 16.4298763,32.0497364 C16.4343071,32.0875578 16.5483419,32.9221341 18.1306043,32.9221341 C19.0083692,32.9221341 19.9059562,32.801607 19.9059562,31.9064253 C19.9059562,31.8451365 19.9565606,31.7956953 20.0192915,31.7956953 C20.0820223,31.7956953 20.1326267,31.8451365 20.1326267,31.9064253 C20.1326267,33.1435942 18.7296952,33.1435942 18.1306043,33.1435942" id="Fill-37" fill="#030000"></path>
                                <path d="M14.6172123,18.7762588 C14.6172123,19.1125501 14.3380718,19.3850462 13.9936354,19.3850462 C13.6496653,19.3850462 13.3705248,19.1125501 13.3705248,18.7762588 C13.3705248,18.4401955 13.6496653,18.1672437 13.9936354,18.1672437 C14.3380718,18.1672437 14.6172123,18.4401955 14.6172123,18.7762588" id="Fill-38" fill="#030000"></path>
                                <path d="M22.7603248,18.7762588 C22.7603248,19.1125501 22.4809512,19.3850462 22.1367479,19.3850462 C21.7927778,19.3850462 21.5134042,19.1125501 21.5134042,18.7762588 C21.5134042,18.4401955 21.7927778,18.1672437 22.1367479,18.1672437 C22.4809512,18.1672437 22.7603248,18.4401955 22.7603248,18.7762588" id="Fill-39" fill="#030000"></path>
                                <path d="M5.09705348,29.2368291 C5.06557148,29.2368291 5.03385627,29.225665 5.00890387,29.2026532 C4.95666705,29.1550347 4.95386865,29.075063 5.00284066,29.024027 C8.66524744,25.1935881 11.6886861,27.2985979 11.7187689,27.3200148 C11.7763693,27.3612538 11.7887289,27.440542 11.7462865,27.4968183 C11.7040773,27.5530947 11.6231569,27.5649424 11.5653233,27.5237034 C11.4498892,27.4409976 8.69206545,25.5369424 5.1917327,29.1967294 C5.1663139,29.2233866 5.13180029,29.2368291 5.09705348,29.2368291" id="Fill-40" fill="#FFFFFF"></path>
                                <path d="M6.06040289,31.7282548 C6.03335168,31.7282548 6.00606728,31.7198247 5.98274727,31.7029646 C5.92561326,31.6608143 5.91418646,31.5815261 5.95709527,31.5257054 C9.08570713,27.4592248 11.0142715,28.7638342 11.095192,28.8210219 C11.1527924,28.8622609 11.165152,28.9413212 11.123176,28.9975976 C11.0812,29.0541018 11.0002795,29.0664051 10.9429123,29.0256218 C10.9193591,29.0094452 9.12045394,27.8349323 6.16417691,31.6776744 C6.13852491,31.7107112 6.0995805,31.7282548 6.06040289,31.7282548" id="Fill-41" fill="#FFFFFF"></path>
                                <path d="M8.12865413,33.970424 C8.11582813,33.970424 8.10230252,33.9683734 8.08947652,33.9642723 C8.02114891,33.9430832 7.9836037,33.8717695 8.0055245,33.8052403 C9.41312,29.5116036 12.2066234,30.0262932 12.2350738,30.0319892 C12.3050338,30.0463431 12.349575,30.1131001 12.3353498,30.181452 C12.3211246,30.249576 12.253963,30.2942326 12.1826038,30.2798787 C12.0771974,30.2586896 9.58475524,29.8162251 8.25201695,33.8824779 C8.23452695,33.9362481 8.18368934,33.970424 8.12865413,33.970424" id="Fill-42" fill="#FFFFFF"></path>
                                <path d="M22.9753353,29.2090327 C22.9363909,29.2090327 22.8979129,29.1919447 22.8727273,29.1598193 C22.8291189,29.1044543 22.8396129,29.0251662 22.8962805,28.9825602 C22.9942245,28.9087401 25.3523434,27.1869565 30.2551412,28.2117789 C30.3251012,28.2263606 30.3698757,28.2933455 30.3549509,28.3616973 C30.3400261,28.4298214 30.2705324,28.4740222 30.2010388,28.4589848 C25.4251018,27.4615032 23.0772437,29.1655153 23.0541569,29.1828311 C23.0303705,29.2006026 23.0028529,29.2090327 22.9753353,29.2090327" id="Fill-43" fill="#FFFFFF"></path>
                                <path d="M30.4267765,30.8977796 C30.4048557,30.8977796 30.3829349,30.8923114 30.3628797,30.8813751 C25.9512011,28.4298214 22.44224,30.3354715 22.4070268,30.3548379 C22.345462,30.3896973 22.2659407,30.3687361 22.2302611,30.3081308 C22.1950479,30.2477533 22.2165023,30.1705157 22.2783003,30.1358841 C22.3144463,30.1156063 25.9456043,28.1359083 30.4904401,30.6615099 C30.5524713,30.6959137 30.5743921,30.7731513 30.5391789,30.8337567 C30.5149261,30.8747678 30.4717841,30.8977796 30.4267765,30.8977796" id="Fill-44" fill="#FFFFFF"></path>
                                <path d="M28.2484548,34.0533576 C28.217206,34.0533576 28.185724,34.0424213 28.1610048,34.020093 C24.8819789,31.0830131 22.579828,31.1196953 22.5544092,31.1190118 C22.4828168,31.1240243 22.4233508,31.0668365 22.4210188,30.9971176 C22.4184536,30.9276266 22.4739552,30.868844 22.5455476,30.8665656 C22.6413928,30.8604139 24.9668637,30.816213 28.3359048,33.8337203 C28.388608,33.8811109 28.392106,33.9608547 28.3438336,34.0123465 C28.3181816,34.0394594 28.2834348,34.0533576 28.2484548,34.0533576" id="Fill-45" fill="#FFFFFF"></path>
                                <path d="M7.30499155,40.9999582 C7.41156398,41.5912019 6.55735219,41.9739724 6.05900369,41.6953246 C5.56065518,41.4522198 5.48976237,40.4784334 5.34727714,39.9915403 C4.95573425,38.6003519 4.13673568,37.1396724 2.57079735,37.0006903 C2.96210703,36.8961119 3.56726116,36.8614803 3.99471685,36.9660586 C3.7808724,35.7138524 2.64192336,33.2796144 3.745426,32.0971271 C3.85199842,32.8275807 3.70974639,33.5229471 3.88744483,34.2185413 C4.10152247,34.9141355 4.45738575,35.6097297 4.95573425,36.1661139 C5.09798628,35.4705197 4.63508419,34.3923829 5.09798628,33.7316481 C5.34727714,35.5748702 6.05900369,36.7571298 7.66085483,37.8350388 C8.26600896,38.2178092 9.19134675,38.9480351 8.90660949,39.7828392 C8.83548348,40.0610313 8.40849419,40.5479245 8.15920334,40.7215383 C7.83878647,40.8958355 7.30499155,40.513065 7.30499155,40.9999582" id="Fill-46" fill="#6D3400"></path>
                                <path id="Fill-47" fill="#6C3300" d="M12.3442114,27.9479407 C12.3442114,28.0133306 12.2898758,28.0664173 12.2229474,28.0664173 C12.1557858,28.0664173 12.1014502,28.0133306 12.1014502,27.9479407 C12.1014502,27.8825507 12.1557858,27.8294641 12.2229474,27.8294641 C12.2898758,27.8294641 12.3442114,27.8825507 12.3442114,27.9479407"></path>
                                <path id="Fill-48" fill="#6C3300" d="M11.4865016,28.0664173 C11.4865016,28.1320351 11.432166,28.1851217 11.3652376,28.1851217 C11.2983092,28.1851217 11.2439736,28.1320351 11.2439736,28.0664173 C11.2439736,28.0010273 11.2983092,27.9479407 11.3652376,27.9479407 C11.432166,27.9479407 11.4865016,28.0010273 11.4865016,28.0664173"></path>
                                <path id="Fill-49" fill="#6C3300" d="M12.0142334,28.7888965 C12.0142334,28.8542865 11.9598977,28.9073731 11.8929693,28.9073731 C11.8260409,28.9073731 11.7714721,28.8542865 11.7714721,28.7888965 C11.7714721,28.7235066 11.8260409,28.67042 11.8929693,28.67042 C11.9598977,28.67042 12.0142334,28.7235066 12.0142334,28.7888965"></path>
                                <path id="Fill-50" fill="#6C3300" d="M12.7728331,29.1181247 C12.7728331,29.1837425 12.7187307,29.2368291 12.6515691,29.2368291 C12.5844075,29.2368291 12.5300719,29.1837425 12.5300719,29.1181247 C12.5300719,29.0527347 12.5844075,28.9996481 12.6515691,28.9996481 C12.7187307,28.9996481 12.7728331,29.0527347 12.7728331,29.1181247"></path>
                                <path id="Fill-51" fill="#6C3300" d="M11.6079989,29.4446188 C11.6079989,29.5100088 11.5536633,29.5630954 11.4865016,29.5630954 C11.4195732,29.5630954 11.3652376,29.5100088 11.3652376,29.4446188 C11.3652376,29.379001 11.4195732,29.3261422 11.4865016,29.3261422 C11.5536633,29.3261422 11.6079989,29.379001 11.6079989,29.4446188"></path>
                                <path id="Fill-52" fill="#6C3300" d="M12.6515691,29.8914122 C12.6515691,29.95703 12.5972335,30.0101166 12.5300719,30.0101166 C12.4631435,30.0101166 12.4088078,29.95703 12.4088078,29.8914122 C12.4088078,29.8260222 12.4631435,29.7729356 12.5300719,29.7729356 C12.5972335,29.7729356 12.6515691,29.8260222 12.6515691,29.8914122"></path>
                                <path id="Fill-53" fill="#6C3300" d="M13.3068612,28.5772336 C13.3068612,28.6426235 13.2525256,28.6957101 13.1855972,28.6957101 C13.1184356,28.6957101 13.0641,28.6426235 13.0641,28.5772336 C13.0641,28.5118436 13.1184356,28.458757 13.1855972,28.458757 C13.2525256,28.458757 13.3068612,28.5118436 13.3068612,28.5772336"></path>
                                <path id="Fill-54" fill="#6C3300" d="M22.7752496,28.6665467 C22.7752496,28.7319366 22.7206808,28.7850233 22.6539856,28.7850233 C22.5865908,28.7850233 22.5324884,28.7319366 22.5324884,28.6665467 C22.5324884,28.6011567 22.5865908,28.5480701 22.6539856,28.5480701 C22.7206808,28.5480701 22.7752496,28.6011567 22.7752496,28.6665467"></path>
                                <path id="Fill-55" fill="#6C3300" d="M22.0756495,29.2090327 C22.0756495,29.2744226 22.0213139,29.3277371 21.9546187,29.3277371 C21.8874571,29.3277371 21.8331214,29.2744226 21.8331214,29.2090327 C21.8331214,29.1436427 21.8874571,29.0903283 21.9546187,29.0903283 C22.0213139,29.0903283 22.0756495,29.1436427 22.0756495,29.2090327"></path>
                                <path id="Fill-56" fill="#6C3300" d="M22.6635468,29.5630954 C22.6635468,29.6284853 22.608978,29.681572 22.5420496,29.681572 C22.4751212,29.681572 22.4207856,29.6284853 22.4207856,29.5630954 C22.4207856,29.4977054 22.4751212,29.4446188 22.5420496,29.4446188 C22.608978,29.4446188 22.6635468,29.4977054 22.6635468,29.5630954"></path>
                                <path id="Fill-57" fill="#6C3300" d="M21.9546187,28.5480701 C21.9546187,28.6134601 21.9000499,28.6665467 21.8331214,28.6665467 C21.766193,28.6665467 21.7116242,28.6134601 21.7116242,28.5480701 C21.7116242,28.4824523 21.766193,28.4295935 21.8331214,28.4295935 C21.9000499,28.4295935 21.9546187,28.4824523 21.9546187,28.5480701"></path>
                                <path id="Fill-58" fill="#6C3300" d="M21.7598966,30.0101166 C21.7598966,30.0755066 21.7057942,30.128821 21.6386326,30.128821 C21.571471,30.128821 21.5173686,30.0755066 21.5173686,30.0101166 C21.5173686,29.9447267 21.571471,29.8914122 21.6386326,29.8914122 C21.7057942,29.8914122 21.7598966,29.9447267 21.7598966,30.0101166"></path>
                                <path id="Fill-59" fill="#6C3300" d="M22.0756495,30.5639946 C22.0756495,30.6293846 22.0213139,30.682699 21.9546187,30.682699 C21.8874571,30.682699 21.8331214,30.6293846 21.8331214,30.5639946 C21.8331214,30.4983768 21.8874571,30.445518 21.9546187,30.445518 C22.0213139,30.445518 22.0756495,30.4983768 22.0756495,30.5639946"></path>
                                <path id="Fill-60" fill="#6C3300" d="M23.6775006,28.2402588 C23.6775006,28.3058766 23.6233982,28.3589633 23.5562366,28.3589633 C23.489075,28.3589633 23.4349726,28.3058766 23.4349726,28.2402588 C23.4349726,28.1748689 23.489075,28.1217823 23.5562366,28.1217823 C23.6233982,28.1217823 23.6775006,28.1748689 23.6775006,28.2402588"></path>
                                <path id="Fill-61" fill="#6C3300" d="M13.6788153,29.5630954 C13.6788153,29.6284853 13.6244797,29.681572 13.5575513,29.681572 C13.4906229,29.681572 13.4362873,29.6284853 13.4362873,29.5630954 C13.4362873,29.4977054 13.4906229,29.4446188 13.5575513,29.4446188 C13.6244797,29.4446188 13.6788153,29.4977054 13.6788153,29.5630954"></path>
                            </g>
                            <g id="Triangle-1" transform="translate(13.292403, 42.833839)">
                                <g id="path-2-link" stroke="#FFFFFF" stroke-width="2" fill="#DE443A">
                                    <path d="M4.96694859,2.92157494 C3.36427164,3.84591278 0.150736641,5.64308487 0.150736571,5.19216325 C0.150736454,4.59144395 -0.0824388993,0.449195507 0.0495588817,0.0244273637 C0.147141676,-0.289593661 3.27274104,1.16105859 4.89594503,1.93884455 C5.06162634,1.59895964 5.41759565,1.36391624 5.83000124,1.36391624 C6.24240683,1.36391624 6.59837614,1.59895964 6.76405745,1.93884455 C8.38726144,1.16105859 11.5128607,-0.289593661 11.6104435,0.0244273637 C11.7424415,0.449195507 11.5092659,4.59144395 11.5092659,5.19216325 C11.5092659,5.64308487 8.29573084,3.84591278 6.69305389,2.92157494 C6.50825594,3.19408268 6.19071638,3.37389823 5.83000124,3.37389823 C5.4692861,3.37389823 5.15174654,3.19408268 4.96694859,2.92157494 L4.96694859,2.92157494 Z" id="path-2"></path>
                                </g>
                                <g id="path-2-link" stroke="#DE443A">
                                    <path d="M4.96694859,2.92157494 C3.36427164,3.84591278 0.150736641,5.64308487 0.150736571,5.19216325 C0.150736454,4.59144395 -0.0824388993,0.449195507 0.0495588817,0.0244273637 C0.147141676,-0.289593661 3.27274104,1.16105859 4.89594503,1.93884455 C5.06162634,1.59895964 5.41759565,1.36391624 5.83000124,1.36391624 C6.24240683,1.36391624 6.59837614,1.59895964 6.76405745,1.93884455 C8.38726144,1.16105859 11.5128607,-0.289593661 11.6104435,0.0244273637 C11.7424415,0.449195507 11.5092659,4.59144395 11.5092659,5.19216325 C11.5092659,5.64308487 8.29573084,3.84591278 6.69305389,2.92157494 C6.50825594,3.19408268 6.19071638,3.37389823 5.83000124,3.37389823 C5.4692861,3.37389823 5.15174654,3.19408268 4.96694859,2.92157494 L4.96694859,2.92157494 Z" id="path-2"></path>
                                </g>
                            </g>
                        </g>
                        <text id="Simba’s-Saviors" fill="#DE443A" sketch:type="MSTextLayer" font-family="VAGRounded Lt" font-size="42.9115646" font-weight="normal">
                            <tspan x="44.4846569" y="55.5610707">Simba</tspan>
                            <tspan x="156.551309" y="55.5610707" font-family="Lucida Grande">’</tspan>
                            <tspan x="170.128796" y="55.5610707">s Saviors</tspan>
                        </text>
                    </g>
                </g>
            </g>
        </g>
    </g>
</svg>