<?xml version="1.0" encoding="UTF-8" standalone="no"?>
<svg width="120px" height="60px" viewBox="0 0 120 60" version="1.1" xmlns="http://www.w3.org/2000/svg" xmlns:xlink="http://www.w3.org/1999/xlink" xmlns:sketch="http://www.bohemiancoding.com/sketch/ns">
    <!-- Generator: Sketch 3.0.1 (7597) - http://www.bohemiancoding.com/sketch -->
    <title>projector</title>
    <description>Created with Sketch.</description>
    <defs>
        <filter x="-50%" y="-50%" width="200%" height="200%" filterUnits="objectBoundingBox" id="filter-1">
            <feOffset dx="0" dy="1" in="SourceAlpha" result="shadowOffsetOuter1"></feOffset>
            <feGaussianBlur stdDeviation="0" in="shadowOffsetOuter1" result="shadowBlurOuter1"></feGaussianBlur>
            <feColorMatrix values="0 0 0 0 0   0 0 0 0 0   0 0 0 0 0  0 0 0 0.35 0" in="shadowBlurOuter1" type="matrix" result="shadowMatrixOuter1"></feColorMatrix>
            <feOffset dx="0" dy="1" in="SourceAlpha" result="shadowOffsetInner1"></feOffset>
            <feGaussianBlur stdDeviation="1" in="shadowOffsetInner1" result="shadowBlurInner1"></feGaussianBlur>
            <feComposite in="shadowBlurInner1" in2="SourceAlpha" operator="arithmetic" k2="-1" k3="1" result="shadowInnerInner1"></feComposite>
            <feColorMatrix values="0 0 0 0 0   0 0 0 0 0   0 0 0 0 0  0 0 0 0.35 0" in="shadowInnerInner1" type="matrix" result="shadowMatrixInner1"></feColorMatrix>
            <feMerge>
                <feMergeNode in="shadowMatrixOuter1"></feMergeNode>
                <feMergeNode in="SourceGraphic"></feMergeNode>
                <feMergeNode in="shadowMatrixInner1"></feMergeNode>
            </feMerge>
        </filter>
    </defs>
    <g id="Home" stroke="none" stroke-width="1" fill="none" fill-rule="evenodd" sketch:type="MSPage">
        <g id="Desktop" sketch:type="MSArtboardGroup" transform="translate(-762.000000, -499.000000)">
            <g id="projector" sketch:type="MSLayerGroup" transform="translate(762.000000, 499.000000)">
                <ellipse id="Oval-15" fill="#242424" sketch:type="MSShapeGroup" cx="64.5" cy="9" rx="10.5" ry="9"></ellipse>
                <path d="M20.5131161,5 C18.8567774,5 16.7697764,6.11844937 15.84955,7.50131076 L1.0545022,29.7344282 C0.135224524,31.115864 0.727493062,32.2265107 2.39453216,32.2150087 L117.322079,31.4220441 C118.981434,31.4105951 119.586194,30.2837454 118.665285,28.8937403 L104.496474,7.50757356 C103.57895,6.12267899 101.49496,5.00000011 99.836084,5.00000011 L20.5131161,5 Z" id="Rectangle-33" fill="#4A4A4A" sketch:type="MSShapeGroup"></path>
                <path d="M20.9383302,5 C19.2858868,5 17.2181301,6.12698489 16.3177932,7.52039967 L1.84251995,29.9231905 C0.943111194,31.3151688 1.43281055,33.0220685 2.92645671,33.7309887 L15.2338567,39.5723748 C16.7319072,40.2833854 18.9536561,39.9826717 20.2038968,38.8937369 C20.2038968,38.8937369 47.7847319,14.8868633 58.9137354,5 C75.1718716,5 20.9383302,5 20.9383302,5 Z" id="Rectangle-34" fill="#4F4F4F" sketch:type="MSShapeGroup"></path>
                <rect id="Rectangle-32" stroke="#4A4A4A" fill="#B8B8B8" filter="url(#filter-1)" sketch:type="MSShapeGroup" x="0" y="29" width="120" height="30" rx="3"></rect>
                <g id="Oval-14-+-Line" transform="translate(11.000000, 40.000000)" stroke="#454545" sketch:type="MSShapeGroup">
                    <circle id="Oval-14" cx="6" cy="6" r="6"></circle>
                    <path d="M6.14814817,3.6 L6.14814822,8.4" id="Line" stroke-linecap="round"></path>
                </g>
                <g id="Group" transform="translate(64.000000, 40.000000)" stroke="#2F2F2F" stroke-width="0.5" stroke-linecap="round" sketch:type="MSShapeGroup">
                    <path d="M0.657894737,0.5 L49.3421053,0.5" id="Line"></path>
                    <path d="M0.657894737,2.5 L49.3421053,2.5" id="Line-3"></path>
                    <path d="M0.657894737,4.5 L49.3421053,4.5" id="Line-5"></path>
                    <path d="M0.657894737,6.5 L49.3421053,6.5" id="Line-4"></path>
                    <path d="M0.657894737,8.5 L49.3421053,8.5" id="Line-7"></path>
                    <path d="M0.657894737,10.5 L49.3421053,10.5" id="Line-6"></path>
                </g>
            </g>
        </g>
    </g>
</svg>